<svg width="24" height="24" viewBox="0 0 24 24" fill="none" xmlns="http://www.w3.org/2000/svg">
<path fill-rule="evenodd" clip-rule="evenodd" d="M4 3.75C3.9337 3.75 3.87011 3.77634 3.82322 3.82322C3.77634 3.87011 3.75 3.9337 3.75 4V20C3.75 20.0663 3.77634 20.1299 3.82322 20.1768C3.87011 20.2237 3.93369 20.25 4 20.25H20C20.0663 20.25 20.1299 20.2237 20.1768 20.1768C20.2237 20.1299 20.25 20.0663 20.25 20V4C20.25 3.93369 20.2237 3.87011 20.1768 3.82322C20.1299 3.77634 20.0663 3.75 20 3.75H4ZM2.76256 2.76256C3.09075 2.43437 3.53587 2.25 4 2.25H20C20.4641 2.25 20.9092 2.43437 21.2374 2.76256C21.5656 3.09075 21.75 3.53587 21.75 4V20C21.75 20.4641 21.5656 20.9092 21.2374 21.2374C20.9092 21.5656 20.4641 21.75 20 21.75H4C3.53587 21.75 3.09075 21.5656 2.76256 21.2374C2.43437 20.9092 2.25 20.4641 2.25 20V4C2.25 3.53587 2.43437 3.09075 2.76256 2.76256ZM16 6.25C16.4142 6.25 16.75 6.58579 16.75 7V17C16.75 17.4142 16.4142 17.75 16 17.75C15.5858 17.75 15.25 17.4142 15.25 17V7C15.25 6.58579 15.5858 6.25 16 6.25ZM12 10.25C12.4142 10.25 12.75 10.5858 12.75 11V17C12.75 17.4142 12.4142 17.75 12 17.75C11.5858 17.75 11.25 17.4142 11.25 17V11C11.25 10.5858 11.5858 10.25 12 10.25ZM8 14.25C8.41421 14.25 8.75 14.5858 8.75 15V17C8.75 17.4142 8.41421 17.75 8 17.75C7.58579 17.75 7.25 17.4142 7.25 17V15C7.25 14.5858 7.58579 14.25 8 14.25Z" fill="#D1CED4"/>
</svg>
